<?xml version="1.0" encoding="UTF-8" standalone="no"?>
<!DOCTYPE svg PUBLIC "-//W3C//DTD SVG 1.1//EN" "http://www.w3.org/Graphics/SVG/1.1/DTD/svg11.dtd">
<svg width="100%" height="100%" viewBox="0 0 60 60" version="1.1" xmlns="http://www.w3.org/2000/svg" xmlns:xlink="http://www.w3.org/1999/xlink" xml:space="preserve" xmlns:serif="http://www.serif.com/" style="fill-rule:evenodd;clip-rule:evenodd;stroke-linejoin:round;stroke-miterlimit:2;">
    <g transform="matrix(1,0,0,1,-2,-130)">
        <g id="Icon_level_tilemap">
            <g transform="matrix(1.24888,0,0,1.24888,21.3845,-10.472)">
                <path d="M17,133.092C17,130.282 14.718,128 11.908,128L5.092,128C2.282,128 0,130.282 0,133.092L0,139.908C0,142.718 2.282,145 5.092,145L11.908,145C14.718,145 17,142.718 17,139.908L17,133.092Z" style="fill:white;"/>
            </g>
            <path d="M20,177.391C20,174.416 17.584,172 14.609,172L7.391,172C4.416,172 2,174.416 2,177.391L2,184.609C2,187.584 4.416,190 7.391,190L14.609,190C17.584,190 20,187.584 20,184.609L20,177.391ZM62,177.391C62,174.416 59.584,172 56.609,172L49.391,172C46.416,172 44,174.416 44,177.391L44,184.609C44,187.584 46.416,190 49.391,190L56.609,190C59.584,190 62,187.584 62,184.609L62,177.391ZM41,177.391C41,174.416 38.584,172 35.609,172L28.391,172C25.416,172 23,174.416 23,177.391L23,184.609C23,187.584 25.416,190 28.391,190L35.609,190C38.584,190 41,187.584 41,184.609L41,177.391ZM20,156.391C20,153.416 17.584,151 14.609,151L7.391,151C4.416,151 2,153.416 2,156.391L2,163.609C2,166.584 4.416,169 7.391,169L14.609,169C17.584,169 20,166.584 20,163.609L20,156.391ZM62,156.391C62,153.416 59.584,151 56.609,151L49.391,151C46.416,151 44,153.416 44,156.391L44,163.609C44,166.584 46.416,169 49.391,169L56.609,169C59.584,169 62,166.584 62,163.609L62,156.391ZM20,135.391C20,132.416 17.584,130 14.609,130L7.391,130C4.416,130 2,132.416 2,135.391L2,142.609C2,145.584 4.416,148 7.391,148L14.609,148C17.584,148 20,145.584 20,142.609L20,135.391ZM62,135.391C62,132.416 59.584,130 56.609,130L49.391,130C46.416,130 44,132.416 44,135.391L44,142.609C44,145.584 46.416,148 49.391,148L56.609,148C59.584,148 62,145.584 62,142.609L62,135.391ZM41,135.391C41,132.416 38.584,130 35.609,130L28.391,130C25.416,130 23,132.416 23,135.391L23,142.609C23,145.584 25.416,148 28.391,148L35.609,148C38.584,148 41,145.584 41,142.609L41,135.391Z" style="fill:rgb(92,92,92);"/>
        </g>
    </g>
</svg>
